<svg xmlns="http://www.w3.org/2000/svg" xmlns:xlink="http://www.w3.org/1999/xlink" aria-hidden="true" role="img" class="iconify iconify--logos" width="35.93" height="32" preserveAspectRatio="xMidYMid meet" viewBox="0 0 256 228"><path fill="#00D8FF" d="M210.483 73.824a171.49 171.49 0 0 0-11.622-5.057c.465-1.395 1.05-2.756 1.483-4.166c6.238-20.037 4.266-37.344-5.822-47.007c-9.76-9.357-25.91-11.622-43.493-6.238c-2.756.837-5.4 1.906-8.045 3.023a170.538 170.538 0 0 0-20.408-6.83C107.677 1.581 87.78.244 70.405 4.337C45.582 10.198 28.22 24.15 21.17 43.007c-6.545 17.582-3.023 36.162 9.011 51.43a171.026 171.026 0 0 0-7.674 8.976c-1.162 1.511-2.27 3.07-3.348 4.628c-15.268 22.574-19.826 48.407-12.202 72.42c8.744 28.22 33.045 48.756 63.546 56.61c27.61 7.034 55.335 2.476 77.328-11.855a145.18 145.18 0 0 0 7.325-5.4a144.12 144.12 0 0 0 13.364-12.202a171.234 171.234 0 0 0 12.431-14.48c.186-.232.465-.465.651-.697c8.045-9.826 13.777-20.501 17.582-31.872c.186-.535.372-1.07.511-1.606c5.822-18.232 5.822-36.232 0-53.105zm-9.126 51.314a145.18 145.18 0 0 1-4.053 15.732c-3.348 9.826-8.278 19.073-14.595 27.428a154.5 154.5 0 0 1-3.766 4.628c-9.011 10.198-19.361 18.879-30.856 25.677c-20.85 12.431-45.15 16.236-68.724 10.826c-26.92-6.238-49.39-25.91-58.401-52.367c-7.674-23.342-3.348-47.24 11.622-67.83c.325-.465.744-.93 1.07-1.395c.93-1.21 1.906-2.42 2.928-3.582c.186-.279.372-.558.604-.837a154.5 154.5 0 0 1 6.83-7.907c.093-.093.232-.186.325-.279c.93-1.023 1.906-2.002 2.928-2.98c.093-.093.232-.186.372-.279a144.12 144.12 0 0 1 8.323-7.907c.186-.186.372-.372.604-.511c.93-.744 1.86-1.488 2.79-2.185c.093-.093.279-.186.372-.279c9.826-7.325 20.85-13.364 32.576-17.815c.93-.372 1.86-.744 2.79-1.07c.093 0 .186-.093.279-.093c11.392-3.766 23.342-6.238 35.43-7.325c.93-.093 1.86-.14 2.79-.186c.093 0 .186 0 .279-.046c.93-.046 1.86-.046 2.79-.046h.93c.465 0 .93.046 1.395.046c.93.046 1.86.093 2.79.186c.093 0 .186.046.279.046c12.088 1.07 24.038 3.582 35.43 7.325c.093 0 .186.093.279.093c.93.326 1.86.698 2.79 1.07c11.726 4.451 22.75 10.49 32.576 17.815c.093.093.279.186.372.279c.93.697 1.86 1.441 2.79 2.185c.186.14.372.326.604.511a144.12 144.12 0 0 1 8.323 7.907c.093.093.232.186.372.279c1.023.977 1.999 1.957 2.928 2.98c.093.093.232.186.325.279a154.5 154.5 0 0 1 6.83 7.907c.186.279.372.558.604.837c1.023 1.162 1.999 2.372 2.928 3.582c.326.465.744.93 1.07 1.395c14.97 20.59 19.296 44.488 11.622 67.83z"></path><path fill="#00D8FF" d="M125.134 87.736c-1.488 0-2.79.14-4.092.372c-11.622 2.002-20.501 8.511-25.431 17.582c-4.93 9.126-5.4 19.59-1.302 30.487c4.628 12.055 13.97 20.85 25.431 23.342c11.855 2.604 24.501-.232 33.745-7.534c9.243-7.302 14.827-18.232 14.827-30.487c0-12.431-5.822-23.575-15.268-30.487c-7.534-5.4-17.12-8.278-27.91-8.278zm-.186 50.18c-6.238 0-11.392-2.185-14.827-6.053c-3.582-3.999-4.628-9.429-2.79-14.827c1.953-5.682 6.545-9.826 12.431-11.392c6.238-1.674 13.364-.465 18.232 3.116c4.911 3.582 7.534 9.429 7.534 15.965c0 6.83-3.116 12.777-8.511 16.236c-3.348 2.185-7.534 3.116-12.069 2.955zm131.12-50.18c-1.488 0-2.79.14-4.092.372c-11.622 2.002-20.501 8.511-25.431 17.582c-4.93 9.126-5.4 19.59-1.302 30.487c4.628 12.055 13.97 20.85 25.431 23.342c11.855 2.604 24.501-.232 33.745-7.534c9.243-7.302 14.827-18.232 14.827-30.487c0-12.431-5.822-23.575-15.268-30.487c-7.534-5.4-17.12-8.278-27.91-8.278zm-.186 50.18c-6.238 0-11.392-2.185-14.827-6.053c-3.582-3.999-4.628-9.429-2.79-14.827c1.953-5.682 6.545-9.826 12.431-11.392c6.238-1.674 13.364-.465 18.232 3.116c4.911 3.582 7.534 9.429 7.534 15.965c0 6.83-3.116 12.777-8.511 16.236c-3.348 2.185-7.534 3.116-12.069 2.955zM70.405 87.736c-1.488 0-2.79.14-4.092.372c-11.622 2.002-20.501 8.511-25.431 17.582c-4.93 9.126-5.4 19.59-1.302 30.487c4.628 12.055 13.97 20.85 25.431 23.342c11.855 2.604 24.501-.232 33.745-7.534c9.243-7.302 14.827-18.232 14.827-30.487c0-12.431-5.822-23.575-15.268-30.487c-7.534-5.4-17.12-8.278-27.91-8.278zm-.186 50.18c-6.238 0-11.392-2.185-14.827-6.053c-3.582-3.999-4.628-9.429-2.79-14.827c1.953-5.682 6.545-9.826 12.431-11.392c6.238-1.674 13.364-.465 18.232 3.116c4.911 3.582 7.534 9.429 7.534 15.965c0 6.83-3.116 12.777-8.511 16.236c-3.348 2.185-7.534 3.116-12.069 2.955z"></path></svg>

